<svg id="Layer_1" data-name="Layer 1" xmlns="http://www.w3.org/2000/svg" viewBox="0 0 165.39 219.23"><defs><style>.cls-1{fill:#fff;}.cls-1,.cls-2{stroke:#000;stroke-miterlimit:10;stroke-width:2.16px;}.cls-2{fill:none;}</style></defs><title>Artboard 1</title><polygon class="cls-1" points="128.45 77.91 91.53 77.91 91.53 95.24 100.76 95.24 100.76 129.9 119.22 129.9 119.22 95.24 128.45 95.24 128.45 77.91"/><rect class="cls-1" x="-0.79" y="0.01" width="55.37" height="77.9"/><line class="cls-2" x1="26.91" y1="25.98" x2="54.6" y2="25.98"/><line class="cls-2" x1="26.91" y1="51.94" x2="54.6" y2="51.94"/><rect class="cls-1" x="110" y="0.01" width="55.37" height="77.9"/><line class="cls-2" x1="137.7" y1="25.98" x2="165.39" y2="25.98"/><line class="cls-2" x1="137.7" y1="51.94" x2="165.39" y2="51.94"/><polygon class="cls-1" points="110 0 82.3 0 82.3 0 54.6 0 54.6 51.94 68.45 59.73 68.45 77.91 96.15 77.91 96.15 59.73 109.98 51.95 110 0"/><line class="cls-2" x1="82.3" y1="0.01" x2="82.3" y2="39.82"/><polygon class="cls-1" points="91.53 77.9 73.07 77.9 73.07 77.9 54.6 77.9 54.6 112.57 63.84 117.77 63.84 129.9 82.3 129.9 82.3 117.77 91.52 112.57 91.53 77.9"/><line class="cls-2" x1="73.07" y1="77.91" x2="73.07" y2="104.48"/><rect class="cls-1" x="-0.79" y="77.91" width="55.4" height="51.99"/><line class="cls-2" x1="17.67" y1="103.9" x2="17.67" y2="129.9"/><line class="cls-2" x1="26.9" y1="77.91" x2="26.9" y2="103.9"/><line class="cls-2" x1="36.14" y1="103.9" x2="36.14" y2="129.9"/><rect class="cls-1" x="128.46" y="77.91" width="36.93" height="51.99"/><line class="cls-2" x1="146.93" y1="129.9" x2="146.93" y2="111.99"/><line class="cls-2" x1="146.93" y1="95.81" x2="146.93" y2="77.91"/><rect class="cls-1" x="-0.79" y="129.83" width="166.19" height="22.5"/><rect class="cls-1" x="46.67" y="152.34" width="47.49" height="66.89"/><line class="cls-2" x1="70.42" y1="197.67" x2="70.42" y2="173.89"/><polygon class="cls-1" points="-0.79 152.34 -0.79 219.23 46.67 219.23 46.67 196.93 46.67 152.34 -0.79 152.34"/><line class="cls-2" x1="-1.56" y1="174.63" x2="22.93" y2="174.63"/><line class="cls-2" x1="22.93" y1="196.93" x2="47.42" y2="196.93"/><rect class="cls-1" x="72.59" y="173.91" width="66.89" height="23.74" transform="translate(291.82 79.75) rotate(90)"/><polygon class="cls-1" points="117.93 152.34 117.93 219.23 165.39 219.23 165.39 196.93 165.39 152.34 117.93 152.34"/><line class="cls-2" x1="117.91" y1="196.93" x2="142.39" y2="196.93"/><line class="cls-2" x1="141.65" y1="182.07" x2="141.65" y2="167.2"/><path d="M13.54,146.28v-6.92l-2.92,4h-.18l-2.92-4v6.92h-2v-9.85H7.81l2.71,3.7,2.71-3.7h2.32v9.85Z"/><path d="M19.69,138.35v2H24v1.92H19.69v2.12h4.6v1.92H17.68v-9.85H24.3v1.92Z"/><path d="M29.63,136.43a4.92,4.92,0,1,1,0,9.85H26.06v-9.85Zm-1.55,7.93h1.56a3,3,0,1,0,0-6H28.08Z"/><path d="M36.37,146.28v-9.85h2v9.85Z"/><path d="M46.53,146.28V143h-4v3.24h-2v-9.85h8v9.85Zm-4-5.16h4v-2.77h-4Z"/><path d="M60.9,146.28V143h-4v3.24h-2v-9.85h8v9.85Zm-4-5.16h4v-2.77h-4Z"/><path d="M71.22,142.67l1.57,3.6H70.62L69,142.67H67v3.6H65v-9.85H72.4v6.24ZM67,141h3.49v-2.62H67Z"/><path d="M78.6,138.35v7.93h-2v-7.93H73.8v-1.92h7.6v1.92Z"/><path d="M84.88,138.35v1.93h4.89v6h-6.9v-1.92h4.89V142.2H82.87v-5.76h6.9v1.92Z"/><path d="M98.12,138.35v2.06h4.28v1.92H98.12v3.95h-2v-9.85h6.62v1.92Z"/><path d="M106.5,138.35v2h4.28v1.92H106.5v2.12h4.6v1.92h-6.62v-9.85h6.62v1.92Z"/><path d="M114.9,138.35v1.93h4.89v6h-6.9v-1.92h4.89V142.2h-4.89v-5.76h6.9v1.92Z"/><path d="M126,138.35v7.93h-2v-7.93h-2.79v-1.92h7.6v1.92Z"/><path d="M130.28,146.28v-9.85h2v9.85Z"/><path d="M137,146.28l-3.22-9.85h2.13l2.37,7.27,2.38-7.27h2.13l-3.25,9.85Z"/><path d="M150.23,146.28V143h-4v3.24h-2v-9.85h8v9.85Zm-4-5.16h4v-2.77h-4Z"/><path d="M160.66,144.36v1.92h-6.3v-9.85h2v7.93Z"/></svg>